<svg xmlns="http://www.w3.org/2000/svg" width="135" height="34" viewBox="0 0 135 34">
    <g fill-rule="nonzero" fill="none">
        <path d="M2 0h131a2 2 0 0 1 2 2v30a2 2 0 0 1-2 2H2a2 2 0 0 1-2-2V2a2 2 0 0 1 2-2z" fill="#FFB3C7"/>
        <path d="M90.576 19.886c-.786 0-1.423.685-1.423 1.53s.637 1.53 1.423 1.53c.787 0 1.424-.684 1.424-1.53 0-.845-.637-1.53-1.424-1.53zm-4.683-1.183c0-1.157-.92-2.095-2.055-2.095-1.134 0-2.055.938-2.055 2.095 0 1.157.92 2.095 2.055 2.095 1.135 0 2.055-.938 2.055-2.095zm.008-4.072h2.268v8.144H85.9v-.52c-.64.469-1.414.745-2.248.745-2.208 0-3.997-1.924-3.997-4.297 0-2.373 1.79-4.297 3.997-4.297.834 0 1.607.276 2.248.746v-.52zm-18.149 1.06v-1.06H65.43v8.143h2.327v-3.801c0-1.283 1.293-1.973 2.19-1.973l.028.001v-2.37c-.921 0-1.768.425-2.223 1.061zm-5.784 3.012c0-1.157-.92-2.095-2.055-2.095-1.135 0-2.055.938-2.055 2.095 0 1.157.92 2.095 2.055 2.095 1.135 0 2.055-.938 2.055-2.095zm.008-4.072h2.268v8.144h-2.268v-.52c-.641.469-1.414.745-2.248.745-2.208 0-3.997-1.924-3.997-4.297 0-2.373 1.79-4.297 3.997-4.297.834 0 1.607.276 2.248.746v-.52zm13.65-.219c-.906 0-1.763.302-2.336 1.137v-.917H71.03v8.143h2.286v-4.28c0-1.238.773-1.845 1.703-1.845.996 0 1.57.64 1.57 1.828v4.297h2.265v-5.179c0-1.895-1.402-3.184-3.229-3.184zm-23.199 8.363h2.374V11.002h-2.374v11.773zM42 22.778h2.514V11H42v11.778zM50.791 11c0 2.55-.924 4.922-2.57 6.685l3.474 5.093H48.59l-3.776-5.535.975-.785c1.616-1.301 2.543-3.29 2.543-5.458h2.46z" fill="#0A0B09"/>
    </g>
</svg>